BBC Cherry's Body Dilemmas HD 720p x264 Cherrys aac mp4 w/subtitles [aularon]

- - -
Synopsis
- - -
Cherry Healey is a slave to her bathroom scales. As her teenage diaries reveal, diets and looking thin has been a lifelong obsession. And with 37 per cent of women in the UK on a diet 'most or all of the time', she's not alone. Now Cherry wants to tackle her body neurosis, so she meets up with women of all shapes and sizes to find out what makes a body beautiful. From a bodybuilder to a fat and happy fashionista, from a nudist to a frustrated slimmer, Cherry takes a look at women's body hang-ups to see if she can get rid of her own demons once and for all.


- - -
URL
- - -  
http://www.bbc.co.uk/programmes/b013y2b1


- - -
Technical Details
- - -
General
Complete name                    : BBC.Cherrys.Body.Dilemmas/Cherrys_Body_Dilemmas_-_Cherrys_Body_Dilemmas_b013y2b1_default.mp4
Format                           : MPEG-4
Format profile                   : Base Media
Codec ID                         : isom
File size                        : 1.06 GiB
Duration                         : 56mn 59s
Overall bit rate                 : 2 658 Kbps
Movie name                       : Cherry's Body Dilemmas
Album                            : Cherry's Body Dilemmas
Performer                        : Cherry's Body Dilemmas
Genre                            : Factual,Lifestyle & Leisure,Health & Wellbeing
Recorded date                    : 2011-08-22T21:00:00+01:00
Writing application              : Lavf53.6.0
Cover                            : Yes
Comment                          : Recorded using get_iplayer, by Aularon.
rtng                             : 4
stik                             : 1
desc                             : Cherry Healey wants to tackle her body neurosis so she meets up with women of all shapes and sizes, from bodybuilder to frustrated slimmer, to find out what makes a body beautiful.
tvnn                             : BBC Three
tvsh                             : Cherry's Body Dilemmas
tven                             : b013y2b1
catg                             : Factual,Lifestyle & Leisure,Health & Wellbeing

Video
ID                               : 1
Format                           : AVC
Format/Info                      : Advanced Video Codec
Format profile                   : High@L4.1
Format settings, CABAC           : Yes
Format settings, ReFrames        : 6 frames
Codec ID                         : avc1
Codec ID/Info                    : Advanced Video Coding
Duration                         : 56mn 59s
Bit rate mode                    : Variable
Bit rate                         : 2 558 Kbps
Maximum bit rate                 : 3 500 Kbps
Width                            : 1 280 pixels
Height                           : 720 pixels
Display aspect ratio             : 16:9
Frame rate mode                  : Constant
Frame rate                       : 25.000 fps
Standard                         : PAL
Color space                      : YUV
Chroma subsampling               : 4:2:0
Bit depth                        : 8 bits
Scan type                        : Progressive
Bits/(Pixel*Frame)               : 0.111
Stream size                      : 1.02 GiB (96%)

Audio
ID                               : 2
Format                           : AAC
Format/Info                      : Advanced Audio Codec
Format profile                   : HE-AAC / LC
Codec ID                         : 40
Duration                         : 56mn 59s
Bit rate mode                    : Constant
Bit rate                         : 96.0 Kbps
Channel(s)                       : 2 channels
Channel positions                : Front: L R
Sampling rate                    : 48.0 KHz / 24.0 KHz
Compression mode                 : Lossy
Stream size                      : 38.6 MiB (4%)
